<svg width="16" height="20" viewBox="0 0 21 27" fill="none" xmlns="http://www.w3.org/2000/svg">
<path d="M9.04508 25.4868C1.5866 14.8221 0.188581 13.7182 0.248776 9.84016C0.33123 4.5281 4.90754 0.28856 10.4703 0.370837C16.0331 0.453113 20.4757 4.82605 20.3932 10.1381C20.333 14.0161 18.9014 15.0782 11.1153 25.5174C10.6044 26.2001 9.53452 26.1842 9.04508 25.4868ZM10.2588 13.9968C12.5766 14.031 14.4834 12.2646 14.5178 10.0512C14.5521 7.83784 12.701 6.01579 10.3832 5.98151C8.06539 5.94723 6.1586 7.7137 6.12424 9.92706C6.08989 12.1404 7.94098 13.9625 10.2588 13.9968Z" fill="white"/>
</svg>
