<svg width="40" height="40" viewBox="0 0 40 40" fill="none" xmlns="http://www.w3.org/2000/svg">
<path d="M0.510682 15.1938L4.0994 17.1777C3.73716 19.0486 3.73716 20.968 4.0994 22.839L0.510682 24.8228C0.097898 25.0486 -0.0874352 25.5164 0.0473532 25.9518C0.982442 28.8228 2.57462 31.4196 4.6554 33.5808C4.97552 33.9115 5.49782 33.9921 5.90219 33.7663L9.49091 31.7825C10.9988 33.0244 12.7342 33.9841 14.6128 34.6131V38.5728C14.6128 39.0244 14.9414 39.4195 15.4047 39.5163C18.4964 40.1776 21.6639 40.1453 24.604 39.5163C25.0673 39.4195 25.3958 39.0244 25.3958 38.5728V34.605C27.266 33.9679 29.0014 33.0083 30.5178 31.7744L34.0981 33.7583C34.5109 33.9841 35.0247 33.9115 35.3449 33.5728C37.4256 31.4196 39.0178 28.8228 39.9529 25.9438C40.0961 25.5083 39.9024 25.0406 39.4896 24.8147L35.9009 22.8309C36.2631 20.9599 36.2631 19.0406 35.9009 17.1696L39.4896 15.1858C39.9024 14.96 40.0877 14.4922 39.9529 14.0567C39.0178 11.1858 37.4256 8.58901 35.3449 6.42773C35.0247 6.09709 34.5024 6.01644 34.0981 6.24225L30.5093 8.22611C29.0014 6.98418 27.266 6.0245 25.3874 5.39548V1.42775C25.3874 0.97614 25.0589 0.58098 24.5955 0.484205C21.5039 -0.177081 18.3363 -0.144823 15.3963 0.484205C14.933 0.58098 14.6044 0.97614 14.6044 1.42775V5.39548C12.7342 6.03257 10.9988 6.99224 9.48248 8.22611L5.89376 6.24225C5.48098 6.01644 4.9671 6.08902 4.64698 6.42773C2.5662 8.58095 0.974015 11.1777 0.0389266 14.0567C-0.0874352 14.5003 0.097898 14.968 0.510682 15.1938ZM20.0043 13.5567C23.7194 13.5567 26.7437 16.4519 26.7437 20.0083C26.7437 23.5648 23.7194 26.4599 20.0043 26.4599C16.2893 26.4599 13.265 23.5648 13.265 20.0083C13.265 16.4519 16.2893 13.5567 20.0043 13.5567Z" fill="white"/>
</svg>
