<svg width="40" height="35" viewBox="0 0 40 35" fill="none" xmlns="http://www.w3.org/2000/svg">
<path d="M19.6956 10.9339L25.4215 16.6598L25.4488 16.3599C25.4488 13.3515 23.0039 10.9066 19.9955 10.9066L19.6956 10.9339Z" fill="white"/>
<path d="M19.9954 7.27113C25.0124 7.27113 29.0842 11.3429 29.0842 16.36C29.0842 17.5324 28.848 18.6504 28.439 19.6774L33.7559 24.9943C36.5007 22.704 38.6639 19.741 39.9999 16.36C36.8462 8.38002 29.0934 2.72675 19.9955 2.72675C17.4506 2.72675 15.0148 3.18116 12.7517 3.99915L16.6781 7.91641C17.705 7.51653 18.8229 7.27113 19.9954 7.27113Z" fill="white"/>
<path d="M1.81774 2.31765L5.96224 6.46215L6.78935 7.28926C3.79004 9.63418 1.41786 12.7517 0 16.3599C3.14476 24.3398 10.9066 29.9931 19.9954 29.9931C22.813 29.9931 25.5033 29.4478 27.9664 28.4571L28.7389 29.2297L34.0378 34.5375L36.3554 32.229L4.13539 0L1.81774 2.31765ZM11.87 12.3608L14.6785 15.1693C14.5967 15.5601 14.5421 15.9509 14.5421 16.3599C14.5421 19.3683 16.987 21.8132 19.9954 21.8132C20.4044 21.8132 20.7953 21.7586 21.177 21.6768L23.9855 24.4853C22.7766 25.0851 21.4315 25.4487 19.9954 25.4487C14.9784 25.4487 10.9066 21.3769 10.9066 16.3599C10.9066 14.9239 11.2702 13.5787 11.87 12.3608Z" fill="white"/>
</svg>
