<svg width="40" height="40" viewBox="0 0 40 40" fill="none" xmlns="http://www.w3.org/2000/svg">
<path d="M14.9322 4.58767L8.75394 11.9998H1.66662C0.745814 11.9998 0 12.8948 0 13.9997V25.9992C0 27.1033 0.745814 27.9991 1.66662 27.9991H8.75394L14.9322 35.4112C15.976 36.6637 17.7773 35.7837 17.7773 33.9971V6.00177C17.7773 4.21352 15.9746 3.3369 14.9322 4.58767ZM31.1346 0.331204C30.3589 -0.279601 29.3166 -0.0221127 28.8076 0.910343C28.2979 1.84113 28.5145 3.09191 29.2902 3.70271C33.8922 7.32671 36.6386 13.4189 36.6386 20.0003C36.6386 26.5816 33.8922 32.6739 29.2902 36.2978C28.5145 36.9078 28.2979 38.1594 28.8076 39.0894C29.2965 39.9818 30.3305 40.3027 31.1346 39.6685C36.6845 35.2971 39.999 27.9432 39.999 19.9994C39.999 12.0557 36.6845 4.70267 31.1346 0.331204ZM33.3325 19.9994C33.3325 14.7055 31.1061 9.83826 27.3764 6.98006C26.5993 6.38509 25.5688 6.66174 25.0764 7.6017C24.5841 8.54165 24.8139 9.78576 25.591 10.3816C28.3513 12.4973 29.9992 16.0921 29.9992 19.9994C29.9992 23.9068 28.3513 27.5016 25.591 29.6173C24.8139 30.2123 24.5841 31.4564 25.0764 32.3972C25.5285 33.2605 26.5431 33.6588 27.3764 33.0188C31.1061 30.1606 33.3325 25.2942 33.3325 19.9994ZM23.4876 13.5939C22.6834 13.0664 21.6689 13.4139 21.2231 14.3814C20.7793 15.3488 21.0731 16.5646 21.8793 17.0987C22.7758 17.6896 23.3327 18.802 23.3327 19.9994C23.3327 21.1977 22.7758 22.3093 21.88 22.9001C21.0738 23.4343 20.78 24.6501 21.2238 25.6175C21.6703 26.5891 22.6855 26.9341 23.4883 26.405C25.4486 25.1092 26.6667 22.6552 26.6667 19.9986C26.6667 17.3421 25.4486 14.8889 23.4876 13.5939Z" fill="white"/>
</svg>
