<svg width="40" height="34" viewBox="0 0 40 34" fill="none" xmlns="http://www.w3.org/2000/svg">
<path d="M16.7988 1.23677L9.84818 8.81754H1.87495C0.839041 8.81754 0 9.73286 0 10.8629V23.1353C0 24.2646 0.839041 25.1808 1.87495 25.1808H9.84818L16.7988 32.7615C17.973 34.0425 19.9995 33.1425 19.9995 31.3153V2.68304C19.9995 0.854113 17.9714 -0.0424537 16.7988 1.23677ZM36.0647 16.9991L39.6302 13.1095C40.1224 12.5726 40.1224 11.7016 39.6302 11.1646L37.8475 9.2198C37.3553 8.68289 36.5569 8.68289 36.0647 9.2198L32.4992 13.1095L28.9336 9.2198C28.4414 8.68289 27.643 8.68289 27.1509 9.2198L25.3681 11.1646C24.8759 11.7016 24.8759 12.5726 25.3681 13.1095L28.9336 16.9991L25.3689 20.888C24.8767 21.4249 24.8767 22.2959 25.3689 22.8328L27.1516 24.7776C27.6438 25.3146 28.4422 25.3146 28.9344 24.7776L32.4992 20.8888L36.0647 24.7785C36.5569 25.3154 37.3553 25.3154 37.8475 24.7785L39.6302 22.8337C40.1224 22.2967 40.1224 21.4257 39.6302 20.8888L36.0647 16.9991Z" fill="white"/>
</svg>
