<svg width="40" height="35" viewBox="0 0 40 35" fill="none" xmlns="http://www.w3.org/2000/svg">
<path d="M19.9812 4.25586C12.346 4.25586 5.42192 8.604 0.312685 15.6665C-0.104228 16.2451 -0.104228 17.0535 0.312685 17.6321C5.42192 24.7032 12.346 29.0513 19.9812 29.0513C27.6165 29.0513 34.5405 24.7032 39.6497 17.6406C40.0666 17.062 40.0666 16.2537 39.6497 15.675C34.5405 8.604 27.6165 4.25586 19.9812 4.25586ZM20.5289 25.3839C15.4606 25.7157 11.2751 21.3676 11.5939 16.0835C11.8555 11.7268 15.248 8.19556 19.4335 7.92327C24.5019 7.59142 28.6874 11.9396 28.3685 17.2237C28.0988 21.5718 24.7062 25.1031 20.5289 25.3839ZM20.2755 21.3506C17.5451 21.5293 15.2889 19.1893 15.4687 16.3473C15.6077 13.9988 17.4389 12.1012 19.6951 11.9481C22.4255 11.7694 24.6817 14.1094 24.5019 16.9514C24.3547 19.3084 22.5236 21.2059 20.2755 21.3506Z" fill="white"/>
</svg>
